<svg xmlns="http://www.w3.org/2000/svg" width="250.25" height="20.52" viewBox="0 0 250.25 20.52"><title>personalLoans</title><path d="M0,.37H6.57c4.3,0,6.92,1.76,6.92,5.4,0,4-2.94,5.61-7.11,5.61H1.9v8.76H0ZM6.52,9.7c3.26,0,5.08-1,5.08-3.87,0-2.67-1.79-3.71-5.1-3.71H1.9V9.7Z" fill="#002465"/><path d="M18.52.37H30.33V2.14H20.42V8.84h7.4v1.71h-7.4v7.86H30.89v1.74H18.52Z" fill="#002465"/><path d="M36,.37h6.63c4.41,0,6.87,1.87,6.87,5.34,0,3.21-1.87,4.81-4.73,5.34l5,9.08H47.62l-4.84-8.87H37.86v8.87H36Zm6.49,9.22c3.26,0,5.1-.94,5.1-3.79s-1.82-3.69-5.13-3.69h-4.6V9.59Z" fill="#002465"/><path d="M54,15.28l1.68-.61a5.56,5.56,0,0,0,5.66,4.17c3,0,4.89-1.36,4.89-3.58,0-2.06-1-3.1-5.18-4.44s-6.41-2.48-6.41-5.74C54.65,2.24,57.18,0,60.79,0s5.85,1.9,6.79,4.54L66,5.29a5.05,5.05,0,0,0-5.21-3.58c-2.65,0-4.25,1.42-4.25,3.23,0,2.22,1.31,3,5.48,4.3s6.15,2.67,6.15,5.88-2.91,5.4-6.87,5.4A7.12,7.12,0,0,1,54,15.28Z" fill="#002465"/><path d="M72.44,10.26C72.44,4.06,75.94,0,80.78,0s8.34,4.06,8.34,10.26-3.5,10.26-8.34,10.26S72.44,16.46,72.44,10.26Zm14.78,0c0-5.37-2.7-8.52-6.44-8.52s-6.44,3.15-6.44,8.52,2.7,8.55,6.44,8.55S87.22,15.63,87.22,10.26Z" fill="#002465"/><path d="M94.57.37h2l10.9,16.3h.05V.37h1.79V20.15h-1.68L96.41,3.34h-.05V20.15H94.57Z" fill="#002465"/><path d="M121.18.29h2.06l7,19.85h-2l-2.11-6.09h-8L116,20.15h-1.84Zm4.38,12.08-3.39-9.83h-.05l-3.39,9.83Z" fill="#002465"/><path d="M135.08.37H137v18h9.67v1.74H135.08Z" fill="#002465"/><path d="M157.53,20.15V.37h3.34V17.1H170v3Z" fill="#002465"/><path d="M172.54,10.26c0-6.65,3.93-10.26,9-10.26s8.9,3.61,8.9,10.26-3.9,10.26-8.9,10.26S172.54,16.91,172.54,10.26Zm14.48,0c0-4.65-2.22-7.19-5.53-7.19s-5.58,2.54-5.58,7.19,2.22,7.24,5.58,7.24S187,14.91,187,10.26Z" fill="#002465"/><path d="M192.61,20.15l7-19.85h3.29l7,19.85h-3.42l-1.6-4.7h-7.51l-1.63,4.7Zm5.77-7.64h5.5l-2.7-8h-.05Z" fill="#002465"/><path d="M214.15,20.15V.37h3.39l9.35,14.11h.05V.37H230V20.15h-3l-9.7-14.4h-.05v14.4Z" fill="#002465"/><path d="M234.83,15.5l2.65-1.39a5.73,5.73,0,0,0,5.45,3.45c2.4,0,4-.77,4-2.57s-1.23-2.51-4.49-3.47c-3.82-1.12-6.89-2.16-6.89-5.93,0-3.37,2.75-5.58,6.76-5.58a7.79,7.79,0,0,1,7.4,4.25l-2.43,1.68a5.47,5.47,0,0,0-5-2.89c-2.19,0-3.45.8-3.45,2.24,0,1.84,1.42,2.46,4.65,3.42,3.74,1.1,6.73,2.32,6.73,6,0,3.23-2.75,5.77-7.45,5.77A8.19,8.19,0,0,1,234.83,15.5Z" fill="#002465"/></svg>