<svg xmlns="http://www.w3.org/2000/svg" xmlns:xlink="http://www.w3.org/1999/xlink" width="34" height="32" viewBox="0 0 34 32"><defs><clipPath id="a" transform="translate(1 1)"><path d="M0,.5a.5.5,0,0,1,1,0v29a.5.5,0,0,1-1,0Z" fill="none" clip-rule="evenodd"/></clipPath><clipPath id="b" transform="translate(1 1)"><path d="M27.64,14.3l-7.51-6a1.48,1.48,0,0,0-1.77,0,.87.87,0,0,0,0,1.41L25,15l-6.62,5.3a.87.87,0,0,0,0,1.41,1.48,1.48,0,0,0,1.77,0l7.51-6A.87.87,0,0,0,27.64,14.3Z" fill="none" clip-rule="evenodd"/></clipPath></defs><title>toPersonal</title><g clip-path="url(#a)"><path d="M0,.5a.5.5,0,0,1,1,0v29a.5.5,0,0,1-1,0Z" transform="translate(1 1)" fill="none" stroke="#006792" stroke-miterlimit="10" stroke-width="2"/></g><g clip-path="url(#b)"><rect x="14" y="4" width="20" height="24.02" fill="#006792"/></g></svg>