<?xml version="1.0" encoding="utf-8"?>
<!-- Generator: Adobe Illustrator 18.0.0, SVG Export Plug-In . SVG Version: 6.00 Build 0)  -->
<!DOCTYPE svg PUBLIC "-//W3C//DTD SVG 1.1//EN" "http://www.w3.org/Graphics/SVG/1.1/DTD/svg11.dtd">
<svg version="1.1" id="Layer_1" xmlns="http://www.w3.org/2000/svg" xmlns:xlink="http://www.w3.org/1999/xlink" x="0px" y="0px"
	 width="78px" height="16px" viewBox="0 0 78 16" enable-background="new 0 0 78 16" xml:space="preserve">
<path fill="#1475B9" d="M41.538189,2.199482c0-1.755749-1.590488-2.046014-3.219131-2.046014c-0.572563,0-1.40081,0-2.219582,0
	c-1.384495,0-2.733124,0-2.733124,0v6.438276h2.733124V4.200851h0.218155l2.075405,2.390893h3.838741l-2.792496-2.53476
	C40.777855,3.835688,41.538189,3.152195,41.538189,2.199482z M37.720695,3.051503c-0.566849,0-1.62122,0-1.62122,0v-1.52554
	c0,0,1.44215,0,1.628059,0c0.573689,0,0.986492,0.269604,0.986492,0.768662
	C38.714027,2.795534,38.287548,3.051503,37.720695,3.051503z M53.079987,0.000008c1.216419,0,2.120197,0.171892,2.617233,0.353378
	v1.580873c-0.506905-0.124642-1.220963-0.275877-2.141453-0.275877c-0.454529,0-2.595943,0.068216-2.595943,1.767499
	c0,1.697847,2.141415,1.713711,2.595943,1.713711c0.840065,0,1.634548-0.149041,2.141453-0.275911v1.582724
	c-0.497036,0.181108-1.400814,0.351528-2.617233,0.351528c-1.430382,0-5.146389-0.374379-5.146389-3.372051
	C47.933598,0.427151,51.649605,0.000008,53.079987,0.000008z M43.398857,0.153468h2.892654v6.438276h-2.892654V0.153468z
	 M24.544004,0.153468h6.820721V1.47248h-3.801523v1.205022h3.801523v1.246339h-3.801523v1.25779h3.801523v1.410114h-6.820721
	V0.153468z M3.394431,0.153468L0.00474,6.591744h2.778858l0.624897-1.266628h3.485501l0.625092,1.266628h2.947671L7.074775,0.153468
	H3.394431z M4.126327,3.867038l1.024258-2.077363l1.02422,2.077363H4.126327z M21.490267,0.153468l1.60265,6.438276h-2.741245
	l-0.904909-3.647207l-1.752541,3.647207h-1.729579l-1.753629-3.647207l-0.903389,3.647207h-2.571852l1.601872-6.438276h2.935158
	l1.560727,3.182784l1.551987-3.182784H21.490267z M15.309402,12.472683l3.066831,3.321137h-3.254992l-1.790849-2.064106
	l-1.784788,2.064106h-3.25841l3.07289-3.321137L8.596807,9.355544h3.306198l1.427387,1.717337l1.431894-1.717337h3.30849
	L15.309402,12.472683z M39.242146,9.355544h6.819439v1.319012h-3.804008v1.205022h3.804008v1.246342h-3.804008v1.257787h3.804008
	v1.410114h-6.819439V9.355544z M55.507504,13.875772c0,0.655462-0.553177,2.124236-3.925423,2.124236
	c-2.772015,0-3.650002-0.54442-4.242649-0.868299l0.755051-1.151164c1.157986,0.442632,2.067825,0.461441,2.726486,0.453321
	c0.703419-0.008498,1.357533-0.135368,1.362076-0.555109c0.007614-0.439683-0.438602-0.545931-1.494133-0.62336
	c-0.977364-0.072292-2.99662-0.337893-3.01104-1.853839c-0.017441-1.475796,1.461536-2.193582,3.783535-2.193582
	c1.25737,0,2.8092,0.187038,3.898888,0.758011l-0.937931,1.133821c-0.857464-0.293585-1.513096-0.356661-2.173271-0.356661
	c-0.714062,0-1.444832,0.126152-1.444832,0.603795c0,0.482099,0.756569,0.497962,1.298363,0.559566
	c0.691296,0.078184,1.582172,0.090343,2.304588,0.402026C55.262386,12.6811,55.507504,13.193412,55.507504,13.875772z
	 M64.696922,13.875772c0,0.655462-0.550888,2.124236-3.920879,2.124236c-2.775009,0-3.785049-0.54442-4.377659-0.868299
	l0.88707-1.151164c1.158726,0.442632,2.066273,0.461441,2.72493,0.453321c0.703457-0.008498,1.357571-0.135368,1.363632-0.555109
	c0.010609-0.439683-0.436348-0.545931-1.493397-0.62336c-0.979618-0.072292-3.129383-0.337893-3.143833-1.853839
	c-0.017445-1.475796,1.596588-2.193582,3.914814-2.193582c1.258926,0,2.80843,0.187038,3.902653,0.758011l-0.942432,1.133821
	c-0.855213-0.293585-1.513134-0.356661-2.170277-0.356661c-0.714802,0-1.447826,0.126152-1.447826,0.603795
	c0,0.482099,0.760338,0.497962,1.298367,0.559566c0.692806,0.078184,1.583645,0.090343,2.302254,0.402026
	C64.451843,12.6811,64.696922,13.193412,64.696922,13.875772z M37.287418,11.401557c0-1.755749-1.590527-2.046013-3.218975-2.046013
	c-0.572914,0-1.403843,0-2.22032,0c-1.384884,0-2.733324,0-2.733324,0v6.438276h2.733324v-2.390894h0.220057l2.073112,2.390894
	h3.837421l-2.790241-2.53476C36.527821,13.037764,37.287418,12.354274,37.287418,11.401557z M33.469734,12.253578
	c-0.565689,0-1.621611,0-1.621611,0v-1.525539c0,0,1.442541,0,1.626154,0c0.576721,0,0.989525,0.269604,0.989525,0.768661
	C34.463802,11.997606,34.038879,12.253578,33.469734,12.253578z M75.268188,0.153468H78v6.438276h-3.144615l-4.029381-3.63429
	v3.63429h-2.731773V0.153468h3.10968l4.064278,3.648643V0.153468z M59.879883,0.153468l-3.390469,6.438276h2.780373
	l0.622993-1.266628h3.48605l0.625282,1.266628h2.946541l-3.391205-6.438276H59.879883z M60.610615,3.867038l1.026703-2.077363
	l1.0229,2.077363H60.610615z M0,9.355544h6.82076v1.319012H3.01675v1.205022h3.80401v1.246342H3.01675v1.257787h3.80401v1.410114H0
	V9.355544z M24.558418,9.355544c-0.540274,0-1.285847,0-2.032549,0c-1.373457,0-2.73328,0-2.73328,0v6.438276h2.73328v-2.285404
	c0,0,1.011166,0,1.787081,0c0.828989,0,1.534351-0.061601,2.175564-0.323839c0.747826-0.305791,1.293037-0.830303,1.293037-1.78302
	C27.781551,9.645808,26.191023,9.355544,24.558418,9.355544z M23.962349,12.135924c-0.568367,0-1.43648,0-1.43648,0v-1.461369
	c0,0,1.25741,0,1.442932,0c0.572521,0,0.985325,0.204674,0.985325,0.704113
	C24.954126,11.879578,24.528812,12.135924,23.962349,12.135924z"/>
</svg>
