<?xml version="1.0" encoding="utf-8"?>
<!-- Generator: Adobe Illustrator 18.0.0, SVG Export Plug-In . SVG Version: 6.00 Build 0)  -->
<!DOCTYPE svg PUBLIC "-//W3C//DTD SVG 1.1//EN" "http://www.w3.org/Graphics/SVG/1.1/DTD/svg11.dtd">
<svg version="1.1" id="bluebox_gradient" xmlns="http://www.w3.org/2000/svg" xmlns:xlink="http://www.w3.org/1999/xlink" x="0px"
	 y="0px" width="60px" height="60px" viewBox="0 0 60 60" enable-background="new 0 0 60 60" xml:space="preserve">
<g>
	<g>
		<g>
			<g>
				<g>
					<g>
						<defs>
							<path id="SVGID_4_" d="M59.646236-0.088142H0v60h59.646236v-19.80452C59.883186,39.765732,60,39.32336,60,38.786549
								c0-0.611607-0.116814-0.992172-0.353764-1.310963V-0.088142z"/>
						</defs>
						
							<radialGradient id="SVGID_1_" cx="10.0146" cy="10.314817" r="71.1119" gradientTransform="matrix(1 0 0 1.00236 0 -0.070578)" gradientUnits="userSpaceOnUse">
							<stop  offset="0" style="stop-color:#99D7F7"/>
							<stop  offset="0.062844" style="stop-color:#92D4F6"/>
							<stop  offset="0.146512" style="stop-color:#7DCBF2"/>
							<stop  offset="0.241912" style="stop-color:#52BCEC"/>
							<stop  offset="0.345295" style="stop-color:#00A9E4"/>
							<stop  offset="0.370786" style="stop-color:#00A4E2"/>
							<stop  offset="0.465703" style="stop-color:#0098D8"/>
							<stop  offset="0.590653" style="stop-color:#008ACD"/>
							<stop  offset="0.719462" style="stop-color:#0080C5"/>
							<stop  offset="0.853291" style="stop-color:#007AC0"/>
							<stop  offset="1" style="stop-color:#0078BF"/>
						</radialGradient>
						<use xlink:href="#SVGID_4_"  overflow="visible" fill="url(#SVGID_1_)"/>
						<clipPath id="SVGID_2_">
							<use xlink:href="#SVGID_4_"  overflow="visible"/>
						</clipPath>
					</g>
				</g>
			</g>
		</g>
		<g>
			<path fill="#00A4E2" d="M32.84581,23.774683c0,1.11408-0.74641,1.698038-1.178104,1.872089
				c0.366722,0.141394,0.67828,0.383745,0.824356,0.593607c0.236935,0.343271,0.282295,0.663712,0.282295,1.2833v1.38093h-1.690884
				l-0.006481-0.88308c0-0.418056,0.042206-1.02965-0.269352-1.364761c-0.246588-0.2505-0.613312-0.302465-1.220125-0.302465
				h-1.801218v2.550306h-1.673954v-7.028168h3.857996c0.850262,0,1.486521,0.027636,2.028364,0.339941
				C32.530926,22.528664,32.84581,22.987371,32.84581,23.774683z"/>
			<polygon fill="#14AFE6" points="24.950525,28.90461 19.348969,28.90461 19.348969,21.876442 24.950525,21.876442 
				24.950525,23.345135 21.030216,23.345135 21.030216,24.607462 24.853153,24.607462 24.853153,26.05167 21.030216,26.046841 
				21.030216,27.45224 24.950525,27.45224 			"/>
			<polygon fill="#58BBEB" points="18.101244,28.90461 16.384438,28.90461 16.374634,23.406927 13.947144,28.90461 
				12.476924,28.90461 10.03315,23.395601 10.03315,28.90461 6.625458,28.90461 5.982902,27.338316 2.490799,27.338316 
				1.845085,28.90461 0.021103,28.90461 3.019865,21.876442 5.512325,21.876442 8.361722,28.535355 8.361722,21.876442 
				11.104076,21.876442 13.294784,26.648607 15.310186,21.876442 18.101244,21.876442 			"/>
			<path fill="#FFFFFF" d="M30.651945,24.763525c-0.227146,0.131746-0.499823,0.143072-0.827663,0.143072h-2.037985v-1.561462
				h2.064072c0.295275,0,0.600351,0.009827,0.798252,0.122086c0.21751,0.105749,0.350607,0.323618,0.350607,0.621254
				C30.999228,24.397602,30.869287,24.641607,30.651945,24.763525z"/>
			<polygon fill="#FFFFFF" points="5.379228,25.874454 4.23037,23.075146 3.087992,25.874454 			"/>
		</g>
		<g>
			<path fill="#FFFFFF" d="M0,30.290524h2.865665l0.64588-1.567959h1.445793l0.642556,1.567959h5.63728v-1.197206l0.504641,1.200371
				h2.922509l0.501467-1.213362v1.210197h14.006313l-0.006645-2.563465h0.272657
				c0.191422,0.00333,0.246588,0.025982,0.246588,0.338276v2.225189h7.240616v-0.598602
				c0.584049,0.315456,1.49612,0.598602,2.687187,0.598602h3.050602l0.652363-1.567959h1.447453l0.639233,1.567959h5.870911
				v-1.486681l0.889309,1.486681h4.702625v-9.807989h-4.657265v1.161396l-0.649036-1.161396h-4.780373v1.161396l-0.597191-1.161396
				h-6.455143c-1.08073,0-2.034843,0.149567-2.800674,0.572453v-0.572453h-4.449558v0.572453
				c-0.493176-0.435877-1.15848-0.572453-1.895267-0.572453H14.305725l-1.096998,2.534138l-1.114811-2.534138H6.967922v1.161396
				l-0.567949-1.161396H2.030026L0,25.140942V30.290524z M55.371998,28.90461h-2.375645l-3.177223-5.269835l0.003323,5.269835
				h-3.414154l-0.652378-1.567959h-3.488777l-0.626274,1.567959h-1.963558c-0.817844,0-1.849907-0.182045-2.430817-0.774153
				c-0.593868-0.60178-0.895622-1.405399-0.895622-2.687063c0-1.044127,0.18494-1.994162,0.902103-2.745497
				c0.545353-0.562794,1.392288-0.82312,2.547626-0.82312h1.619453v1.506166h-1.583729
				c-0.613308,0-0.963917,0.094437-1.298073,0.419722c-0.279156,0.295971-0.477055,0.855433-0.477055,1.593943
				c0,0.754665,0.146057,1.291475,0.464096,1.649237c0.253067,0.276638,0.723644,0.361095,1.164993,0.361095h0.753036
				l2.362537-5.530163h2.512051l2.836418,6.649252v-6.649252h2.557266l2.946918,4.895916v-4.895916h1.713482V28.90461z
				 M35.52969,28.90461h-1.710327v-7.029833h1.710327V28.90461z M32.84581,23.774683c0,1.112413-0.74641,1.698038-1.178104,1.870424
				c0.366722,0.143059,0.67828,0.383911,0.824356,0.595272c0.236935,0.341606,0.282295,0.663712,0.282295,1.281815v1.382416
				h-1.690884l-0.006481-0.884747c0-0.416389,0.042206-1.027983-0.269352-1.363094
				c-0.246588-0.2505-0.613312-0.302465-1.220125-0.302465h-1.801218v2.550306h-1.673954v-7.029833h3.857996
				c0.850262,0,1.486521,0.029301,2.028364,0.341606C32.530926,22.528664,32.84581,22.987371,32.84581,23.774683z
				 M24.948862,28.90461h-5.599894v-7.029833h5.599894v1.470358h-3.920307v1.262327h3.824598v1.444208l-3.824598-0.006495v1.405399
				h3.920307V28.90461z M18.101244,28.90461h-1.716806l-0.009804-5.497683l-2.429152,5.497683h-1.470219l-2.442113-5.510675
				v5.510675H6.623796l-0.640895-1.567959H2.490799L1.843424,28.90461H0.021103l2.9971-7.029833h2.494122l2.849397,6.659079
				v-6.659079h2.740693l2.190706,4.772331l2.017065-4.772331h2.791058V28.90461z M45.181492,25.872789l-1.161819-2.797644
				l-1.148857,2.797644H45.181492z M30.651945,24.763525c-0.227146,0.130081-0.499823,0.143072-0.827663,0.143072h-2.037985
				v-1.561462h2.064072c0.295275,0,0.600351,0.009827,0.798252,0.120419c0.21751,0.107416,0.350607,0.325285,0.350607,0.621422
				C30.999228,24.395937,30.869287,24.63994,30.651945,24.763525z M5.377566,25.872789L4.23037,23.075146l-1.142377,2.797644
				H5.377566z"/>
			<path fill="#FFFFFF" d="M32.492062,36.294704c0,1.948704-1.450611,2.35527-2.920849,2.35527h-2.090841v2.358433h-3.25349
				l-2.065752-2.325954l-2.145178,2.325954h-6.638418V33.97541h6.742271l2.060766,2.303139l2.132217-2.303139h5.355799
				C30.999228,33.97541,32.492062,34.346165,32.492062,36.294704z M19.165707,39.541382h-4.121715v-1.398907h3.680367v-1.434547
				h-3.680367v-1.27515h4.201125l1.83362,2.046139L19.165707,39.541382z M25.810606,40.370831l-2.570408-2.865929l2.570408-2.77166
				V40.370831z M29.652319,37.21859h-2.171947v-1.785812h2.188215c0.606848,0,1.025579,0.243824,1.025579,0.861927
				C30.694166,36.903133,30.294859,37.21859,29.652319,37.21859z M40.959267,33.97541h5.598228v1.457367h-3.926785v1.27515h3.829582
				v1.434547h-3.829582v1.398907l3.926785,0.006496v1.460529h-5.598228V33.97541z M38.840008,37.739079
				c0.373207,0.136742,0.678284,0.383911,0.821182,0.592106c0.236801,0.344772,0.275833,0.663559,0.278992,1.284981v1.392242
				h-1.681084v-0.88158c0-0.422901,0.038883-1.047485-0.272675-1.372757c-0.243263-0.256996-0.616634-0.315624-1.226624-0.315624
				h-1.794735v2.569962h-1.681084V33.97541h3.865143c0.853584,0,1.470219,0.035629,2.018726,0.334946
				c0.5289,0.31562,0.860065,0.761326,0.860065,1.561462C40.027916,36.99091,39.281342,37.563526,38.840008,37.739079z
				 M37.827404,36.867325c-0.220665,0.130066-0.499653,0.14307-0.824337,0.14307h-2.038002v-1.577618h2.064087
				c0.298599,0,0.600353,0.006493,0.798252,0.123585c0.21751,0.117088,0.347282,0.331764,0.347282,0.634243
				C38.174686,36.489906,38.044914,36.733913,37.827404,36.867325z M52.954311,37.296703
				c0.331001,0.34161,0.502979,0.770988,0.502979,1.489845c0,1.515995-0.944477,2.221859-2.632038,2.221859H47.55714v-1.509342
				h3.255154c0.321362,0,0.542027-0.042294,0.684761-0.175705c0.113655-0.104111,0.197903-0.260326,0.197903-0.455364
				c0-0.205044-0.08757-0.370922-0.207706-0.465191c-0.12645-0.110596-0.301739-0.156242-0.593872-0.159397
				c-1.567425-0.052132-3.530983,0.048801-3.530983-2.176388c0-1.018158,0.639416-2.09161,2.395088-2.09161h3.362328v1.496326
				h-3.073368c-0.308403,0-0.506302,0.013004-0.675125,0.12693c-0.181786,0.113758-0.249912,0.286129-0.249912,0.507496
				c0,0.263493,0.155865,0.445538,0.366726,0.523651c0.17532,0.061794,0.363567,0.078114,0.649036,0.08128l0.905594,0.02282
				C51.95467,36.759895,52.574463,36.916126,52.954311,37.296703z M59.646236,40.107338
				c-0.412086,0.601768-1.204025,0.90107-2.278275,0.90107h-3.238869v-1.509342H57.355
				c0.318039,0,0.54203-0.042294,0.678284-0.175705c0.113655-0.104111,0.201225-0.260326,0.201225-0.455364
				c0-0.205044-0.08757-0.370922-0.204548-0.465191c-0.126434-0.110596-0.301754-0.156242-0.590549-0.159397
				c-1.57407-0.052132-3.537464,0.048801-3.537464-2.176388c0-1.018158,0.645714-2.09161,2.401569-2.09161h3.34272v-1.398907
				h-3.10577c-0.937996,0-1.616261,0.224518-2.0998,0.575787v-0.575787H49.8517c-0.730293,0-1.590359,0.185368-2.002445,0.575787
				l0.003159-0.575787h-8.197868v0.575787c-0.652176-0.468357-1.74921-0.575787-2.26199-0.575787h-5.400331v0.575787
				c-0.519262-0.500999-1.66164-0.575787-2.362686-0.575787h-6.051695l-1.384312,1.506157l-1.294916-1.506157h-9.039988v9.814487
				h8.869669l1.426353-1.525654l1.345263,1.525654l5.461164,0.003162v-2.309631h0.542009
				c0.720488,0.009827,1.580387-0.016159,2.333441-0.341442v2.647911h4.507864v-2.560135h0.217342
				c0.279156,0,0.305077,0.016308,0.305077,0.289463v2.270672h13.695591c0.866528,0,1.775276-0.224518,2.278255-0.627918v0.627918
				h4.345524c0.905594,0,1.784931-0.126919,2.460056-0.452202V40.107338z M59.646236,35.471737h-3.06039
				c-0.305096,0-0.509476,0.013004-0.674976,0.12693c-0.175304,0.113758-0.246754,0.286129-0.246754,0.507496
				c0,0.263493,0.14938,0.445538,0.370064,0.523651c0.171963,0.061794,0.363384,0.078114,0.645699,0.08128l0.905594,0.02282
				c0.915062,0.025982,1.528542,0.182213,1.904919,0.56279c0.061798,0.055298,0.107159,0.120411,0.155846,0.178883V35.471737z"/>
		</g>
	</g>
</g>
</svg>
