<svg xmlns="http://www.w3.org/2000/svg" xmlns:xlink="http://www.w3.org/1999/xlink" width="28" height="27.85" viewBox="0 0 28 27.85"><defs><radialGradient id="a" cx="4.67" cy="32.89" r="33.14" gradientTransform="matrix(1, 0, 0, -1, 0, 37.7)" gradientUnits="userSpaceOnUse"><stop offset="0" stop-color="#7fcef2"/><stop offset="0.07" stop-color="#79caf0"/><stop offset="0.16" stop-color="#68c1eb"/><stop offset="0.27" stop-color="#4db0e2"/><stop offset="0.37" stop-color="#2c9dd7"/><stop offset="0.5" stop-color="#1b88ca"/><stop offset="0.66" stop-color="#0c76be"/><stop offset="0.82" stop-color="#036bb7"/><stop offset="1" stop-color="#0067b5"/></radialGradient></defs><title>bluebox</title><path d="M27.8,0H0V27.85H27.8V18.69a1.06,1.06,0,0,0,.2-.62,1,1,0,0,0-.16-.61V0Z" fill="url(#a)"/><path d="M15.31,11.09a.93.93,0,0,1-.55.87.86.86,0,0,1,.38.28.93.93,0,0,1,.13.6v.64h-.78v-.41a1,1,0,0,0-.13-.63.75.75,0,0,0-.57-.14h-.84v1.19h-.78V10.21H14a1.84,1.84,0,0,1,.94.16A.76.76,0,0,1,15.31,11.09Z" fill="#33a0d9"/><polygon points="11.63 13.48 9.02 13.48 9.02 10.21 11.63 10.21 11.63 10.89 9.8 10.89 9.8 11.48 11.58 11.48 11.58 12.15 9.8 12.15 9.8 12.8 11.63 12.8 11.63 13.48" fill="#49afe1"/><polygon points="8.44 13.48 7.64 13.48 7.63 10.92 6.5 13.48 5.81 13.48 4.68 10.92 4.68 13.48 3.09 13.48 2.79 12.75 1.16 12.75 0.86 13.48 0.01 13.48 1.41 10.21 2.57 10.21 3.9 13.31 3.9 10.21 5.17 10.21 6.2 12.43 7.13 10.21 8.44 10.21 8.44 13.48" fill="#5cbae6"/><path d="M14.28,11.55a.74.74,0,0,1-.39.07h-.94v-.77h1a.81.81,0,0,1,.37.06.3.3,0,0,1,.16.29A.34.34,0,0,1,14.28,11.55Z" fill="#fff"/><polygon points="2.51 12.07 1.97 10.77 1.44 12.07 2.51 12.07" fill="#fff"/><polygon points="19.98 12.07 21.06 12.07 20.52 10.77 19.98 12.07" fill="#fff"/><path d="M24.33,9.56v.54L24,9.56H21.8v.54l-.28-.54h-3a2.71,2.71,0,0,0-1.31.27V9.56H15.13v.29a1.29,1.29,0,0,0-.88-.27H6.67l-.51,1.16L5.64,9.56H3.25v.54L3,9.56H1L0,11.73v2.39H1.34l.3-.73h.67l.3.73H5.24v-.55l.24.56H6.83l.23-.56v.56H13.6v-1.2h.13c.09,0,.11,0,.11.16v1h3.37v-.24a2.67,2.67,0,0,0,1.25.28h1.42l.3-.73h.67l.3.73h2.74v-.7l.41.69h2.2V9.56ZM8.44,13.48h-.8V10.92L6.5,13.48H5.81L4.68,10.92v2.56H3.09l-.3-.73H1.16l-.3.73H0l1.4-3.27H2.57l1.33,3.1v-3.1H5.17l1,2.22.94-2.22h1.3v3.27Zm3.19-2.63H9.8v.59h1.78v.71H9.8v.7h1.83v.67H9V10.21h2.61v.64Zm3.51,1.35a.93.93,0,0,1,.13.6v.64h-.78v-.37a1,1,0,0,0-.13-.63.75.75,0,0,0-.57-.14h-.84v1.19h-.78V10.21H14a1.84,1.84,0,0,1,.94.16.76.76,0,0,1,.39.72.93.93,0,0,1-.55.87.86.86,0,0,1,.36.28Zm1.42,1.24h-.8V10.21h.8v3.23Zm9.25,0H24.7L23.22,11v2.45H21.63l-.3-.73H19.7l-.29.73h-.92a1.65,1.65,0,0,1-1.13-.36,1.64,1.64,0,0,1-.42-1.23,1.74,1.74,0,0,1,.42-1.28,1.59,1.59,0,0,1,1.19-.38h.75v.7h-.74a.76.76,0,0,0-.6.2,1.09,1.09,0,0,0-.22.74,1.12,1.12,0,0,0,.22.77.75.75,0,0,0,.54.17h.35L20,10.2h1.17l1.32,3.09V10.21h1.19L25,12.49V10.21h.8v3.23Z" fill="#fff"/><path d="M15.14,16.91A1.11,1.11,0,0,1,13.78,18h-1v1.1H11.29l-1-1.08-1,1.08H6.23V15.85H9.38l1,1.07,1-1.07h2.5a1.09,1.09,0,0,1,1.26,1.06ZM8.93,18.42H7v-.65H8.73v-.66H7v-.6H9l.85,1Zm3.07.43-1.2-1.33L12,16.19Zm1.79-1.47h-1v-.87h1a.4.4,0,0,1,.48.4.42.42,0,0,1-.41.43h0Zm5.3-1.53H21.7v.68H19.87v.59h1.78v.67H19.87v.65H21.7v.68H19.09Zm-1,1.75a.84.84,0,0,1,.38.28.94.94,0,0,1,.13.6v.65h-.77V18.7a1,1,0,0,0-.13-.64.74.74,0,0,0-.57-.15h-.84V19.1h-.78V15.85h1.8a1.9,1.9,0,0,1,.94.16.76.76,0,0,1,.4.73.92.92,0,0,1-.55.85Zm-.47-.41a.76.76,0,0,1-.38.07h-1v-.75h1a.78.78,0,0,1,.37.06.31.31,0,0,1,.16.29.35.35,0,0,1-.19.32Zm7,.2a.9.9,0,0,1,.23.69,1,1,0,0,1-1.23,1H22.16v-.7h1.52a.45.45,0,0,0,.32-.06.28.28,0,0,0,.09-.21.27.27,0,0,0-.09-.26.41.41,0,0,0-.28,0c-.73,0-1.65,0-1.65-1a1,1,0,0,1,1-1h1.7v.7H23.32a.54.54,0,0,0-.31.06.27.27,0,0,0,0,.48.89.89,0,0,0,.3,0h.42a1.27,1.27,0,0,1,.9.29Zm3.12,1.31a1.22,1.22,0,0,1-1.06.42H25.23v-.7h1.5a.44.44,0,0,0,.27-.1.35.35,0,0,0,0-.47.41.41,0,0,0-.23,0c-.73,0-1.65,0-1.65-1a1,1,0,0,1,1-1H27.8v-.66H26.35a1.63,1.63,0,0,0-1,.27v-.27H23.23a1.49,1.49,0,0,0-.93.27v-.27H18.48v.26a2.05,2.05,0,0,0-1-.27H14.91v.27a1.79,1.79,0,0,0-1.1-.27H11l-.64.7-.6-.7H5.53v4.57H9.66l.66-.71.68.71h2.5V18.68h.25a2.65,2.65,0,0,0,1.09-.16v1.23h2.1V18.56H17c.13,0,.14,0,.14.13v1.06h6.38a1.82,1.82,0,0,0,1.06-.29v.29h2a2.73,2.73,0,0,0,1.15-.21v-.85Zm0-2.16H26.37a.54.54,0,0,0-.31.06.26.26,0,0,0-.12.24.25.25,0,0,0,.17.24.89.89,0,0,0,.3,0h.42a1.25,1.25,0,0,1,.89.26l.07.08v-.89Z" fill="#fff"/></svg>